<?xml version="1.0" encoding="UTF-8"?>
<svg xmlns="http://www.w3.org/2000/svg" version="1.1" xmlns:xlink="http://www.w3.org/1999/xlink" viewBox="0 0 111.2 30.6">
  <defs>
    <style>
      .cls-1, .cls-2, .cls-3, .cls-4 {
        isolation: isolate;
      }

      .cls-1, .cls-3 {
        fill: #fff;
      }

      .cls-1, .cls-4 {
        font-family: Brava, ' Brava';
        font-size: 29.7px;
      }

      .cls-5 {
        fill: none;
      }

      .cls-6, .cls-3 {
        fill-rule: evenodd;
      }

      .cls-6, .cls-4 {
        fill: #e08dad;
      }

      .cls-3 {
        opacity: .2;
      }

      .cls-7 {
        clip-path: url(#clippath);
      }
    </style>
    <clipPath id="clippath">
      <path class="cls-5" d="M81.7,26.4h-5.9c-.5,0-.8-.3-1-.7,0-.4,0-.9.4-1.1l3.3-2.1-4.5-6.6c-.2-.3-.2-.7,0-1l5.4-10.3c.2-.3.5-.5.9-.5h12.3c.3,0,.6.2.8.5l6.9,10.1c.2.3.2.7,0,1l-5.4,10.3c-.2.3-.5.5-.9.5h-12.4,0ZM88.7,9.4l1.3-2.6h-9.9l-1.2,2.3,3.2,4.7,2.4,3.5,1.3-2.6-3.7-5.4h6.6ZM97.9,16.2l-3.2-4.7-2.4-3.5-1.3,2.6,3.7,5.4h-6.5l-1.3,2.5h9.9l1.2-2.3h0Z"/>
    </clipPath>
  </defs>
  <!-- Generator: Adobe Illustrator 28.6.0, SVG Export Plug-In . SVG Version: 1.2.0 Build 709)  -->
  <g>
    <g id="Camada_1">
      <g id="Camada_1-2" data-name="Camada_1">
        <path class="cls-6" d="M81.7,26.4h-5.9c-.5,0-.8-.3-1-.7,0-.4,0-.9.4-1.1l3.3-2.1-4.5-6.6c-.2-.3-.2-.7,0-1l5.4-10.3c.2-.3.5-.5.9-.5h12.3c.3,0,.6.2.8.5l6.9,10.1c.2.3.2.7,0,1l-5.4,10.3c-.2.3-.5.5-.9.5h-12.4,0ZM88.7,9.4l1.3-2.6h-9.9l-1.2,2.3,3.2,4.7,2.4,3.5,1.3-2.6-3.7-5.4h6.6ZM97.9,16.2l-3.2-4.7-2.4-3.5-1.3,2.6,3.7,5.4h-6.5l-1.3,2.5h9.9l1.2-2.3h0Z"/>
        <g class="cls-7">
          <g>
            <polygon class="cls-3" points="98.1 26.2 75.1 30.3 73.9 21.3 91.5 26.4 98.1 26.2"/>
            <polygon class="cls-3" points="97.2 21.6 96.5 28 75.1 30.3 72.7 25 78.5 22.4 97.2 21.6"/>
          </g>
        </g>
        <g class="cls-2">
          <text class="cls-4" transform="translate(10.7 26.6)"><tspan x="0" y="0">Oi</tspan></text>
          <text class="cls-1" transform="translate(29.6 26.6)"><tspan x="0" y="0">Ana</tspan></text>
        </g>
      </g>
    </g>
  </g>
</svg>