<?xml version="1.0" encoding="UTF-8"?>
<svg id="Camada_2" xmlns="http://www.w3.org/2000/svg" xmlns:xlink="http://www.w3.org/1999/xlink" viewBox="0 0 1920.2 1075.7">
  <defs>
    <clipPath id="clippath">
      <path d="M0,607.6s95.3,204.2,401.2,161.1c305.9-43.1,419.7-32.1,544.2,96.9s344,107.5,572.9,67.1,360.2,68.2,401.8,143V0H0v607.5h0Z" fill="none"/>
    </clipPath>
  </defs>
  <g id="Camada_1-2" data-name="Camada_1">
    <g id="Camada_1-3" data-name="Camada_1">
      <g id="Camada_1-2">
        <g id="Group_112">
          <path id="Path_195" d="M0,607.4s100.4,239.9,401.2,191.5c300.8-48.4,442.1,9.6,537.6,114.9,95.6,105.4,352.1,94.3,581,52.4s363.2,41.8,400.4,109.4l-.4-1075.6H0v607.4h0Z" fill="#e3e3e3"/>
          <path id="Path_194" d="M0,607.6s95.3,204.2,401.2,161.1c305.9-43.1,419.7-32.1,544.2,96.9s344,107.5,572.9,67.1,360.2,68.2,401.8,143V0H0v607.5h0Z" fill="#630831"/>
          <g clip-path="url(#clippath)">
            <g id="Mask_Group_6">
              <path id="Path_4" d="M25.7,687.7s174.2-392,817.4-255c643.2,137,869.4,77.5,1056.2-464" fill="none" isolation="isolate" opacity=".1" stroke="#fff" stroke-width="128"/>
            </g>
          </g>
        </g>
      </g>
    </g>
  </g>
</svg>