<?xml version="1.0" encoding="UTF-8"?>
<svg xmlns="http://www.w3.org/2000/svg" version="1.1" xmlns:xlink="http://www.w3.org/1999/xlink" viewBox="0 0 1920.2 1054.9">
  <defs>
    <style>
      .cls-1 {
        fill: #e08dad;
      }

      .cls-2 {
        fill: url(#Gradiente_sem_nome);
        isolation: isolate;
        opacity: .1;
      }
    </style>
    <linearGradient id="Gradiente_sem_nome" data-name="Gradiente sem nome" x1="654.2" y1="922.1" x2="654.2" y2="923.1" gradientTransform="translate(-1255152.2 973761.2) scale(1920.2 -1054.9)" gradientUnits="userSpaceOnUse">
      <stop offset="0" stop-color="#361cc1"/>
      <stop offset="1" stop-color="#2e82ef"/>
    </linearGradient>
  </defs>
  <!-- Generator: Adobe Illustrator 28.6.0, SVG Export Plug-In . SVG Version: 1.2.0 Build 709)  -->
  <g>
    <g id="Camada_1">
      <g id="Group_111">
        <path id="Path_195" class="cls-2" d="M1920.2,675.2s-85.9-337.8-386.7-270.2-439.4,0-538.3-145.2-352-127-574.6-79.2S118.2,159.1,0,0c0,0,0,1054.9,0,1054.9h1920.1v-379.6Z"/>
        <path id="Path_194" class="cls-1" d="M1920.2,675.3s-86.3-291.5-385.9-226.4c-299.6,65.1-437.7,0-536.1-139.9s-348.5-144.6-576.5-88.3C193.5,277.1,41.6,104.3.1.1c0,8,0,1054.7,0,1054.7h1920v-379.6Z"/>
      </g>
    </g>
  </g>
</svg>